<svg
  width="24"
  height="24"
  viewBox="0 0 24 24"
  fill="none"
  xmlns="http://www.w3.org/2000/svg"
>
  <path
    fill-rule="evenodd"
    clip-rule="evenodd"
    d="M2.25 7C2.25 5.48122 3.48122 4.25 5 4.25H19C20.5188 4.25 21.75 5.48122 21.75 7V17C21.75 18.5188 20.5188 19.75 19 19.75H5C3.48122 19.75 2.25 18.5188 2.25 17V7ZM5 5.75C4.30964 5.75 3.75 6.30964 3.75 7V8.25H20.25V7C20.25 6.30964 19.6904 5.75 19 5.75H5ZM20.25 9.75H3.75V10.25H20.25V9.75ZM3.75 11.75V17C3.75 17.6904 4.30964 18.25 5 18.25H19C19.6904 18.25 20.25 17.6904 20.25 17V11.75H3.75ZM5.75 15C5.75 14.5858 6.08579 14.25 6.5 14.25H10.5C10.9142 14.25 11.25 14.5858 11.25 15C11.25 15.4142 10.9142 15.75 10.5 15.75H6.5C6.08579 15.75 5.75 15.4142 5.75 15Z"
    fill="currentColor"
  />
</svg>